<?xml version="1.0" standalone="no"?>
<!DOCTYPE svg PUBLIC "-//W3C//DTD SVG 20010904//EN"
 "http://www.w3.org/TR/2001/REC-SVG-20010904/DTD/svg10.dtd">
<svg version="1.0" xmlns="http://www.w3.org/2000/svg"
 width="1180.000000pt" height="360.000000pt" viewBox="0 0 1180.000000 360.000000"
 preserveAspectRatio="xMidYMid meet">
<metadata>
Created by potrace 1.16, written by Peter Selinger 2001-2019
</metadata>
<g transform="translate(0.000000,360.000000) scale(0.100000,-0.100000)"
fill="#FFFFFF" stroke="none">
<path d="M4983 3476 c-38 -38 -79 -63 -216 -132 -58 -30 -255 -87 -369 -108
-225 -41 -453 -67 -804 -91 -769 -53 -1008 -103 -1097 -231 -53 -75 -44 -186
19 -245 21 -20 27 -21 34 -9 5 8 10 22 10 31 0 26 55 103 106 148 94 83 301
164 525 205 159 29 398 56 715 81 175 14 386 34 469 45 82 11 173 22 200 26
l50 6 -31 -29 c-16 -15 -61 -55 -99 -88 -38 -33 -236 -208 -440 -390 -488
-433 -494 -439 -514 -446 -9 -4 -92 -12 -186 -18 -644 -41 -1312 -190 -1895
-423 -140 -56 -439 -200 -575 -278 -417 -239 -764 -563 -765 -713 0 -70 61
-154 178 -245 103 -80 108 -86 121 -167 39 -228 188 -329 441 -296 192 25 429
144 484 243 15 26 100 99 286 245 146 114 272 213 280 220 8 7 78 62 155 123
77 62 158 126 180 144 22 18 146 117 275 221 279 224 466 376 758 619 l216
180 101 12 c143 17 387 35 393 29 3 -2 -3 -24 -12 -47 -176 -430 -239 -782
-185 -1040 15 -74 70 -185 119 -240 50 -58 137 -103 180 -94 61 12 210 130
210 166 0 13 -1 13 -43 -5 -20 -8 -56 -15 -81 -15 -57 0 -95 30 -127 102 -22
49 -24 65 -23 208 1 130 5 174 28 275 47 207 147 472 241 641 l38 67 156 -7
c299 -12 534 -46 696 -101 38 -13 72 -22 74 -20 9 9 -73 48 -159 76 -162 53
-423 101 -622 116 -58 4 -88 10 -88 18 0 7 31 59 69 116 160 239 412 530 476
548 60 16 161 98 167 135 6 35 -31 157 -68 223 l-35 63 35 31 c46 40 64 100
41 135 -21 33 -43 28 -92 -20z m-553 -559 c0 -2 -28 -47 -62 -100 -110 -169
-182 -293 -263 -450 l-60 -117 -177 0 c-98 0 -178 4 -178 8 0 5 24 29 53 53
106 88 495 436 582 521 79 77 105 98 105 85z m-1100 -845 c0 -10 -121 -114
-345 -298 -907 -743 -1539 -1142 -1984 -1255 -127 -33 -226 -37 -271 -14 -34
17 -60 62 -60 100 0 76 132 243 337 427 64 58 338 268 350 268 3 0 20 11 37
23 110 84 435 265 661 367 303 138 705 268 1085 350 202 44 190 42 190 32z"/>
<path d="M10710 2897 c-25 -7 -81 -56 -190 -166 -246 -246 -356 -426 -650
-1057 -64 -138 -130 -268 -147 -290 -18 -21 -35 -51 -38 -66 -24 -98 133 -398
208 -398 35 0 65 39 83 106 33 129 138 276 354 498 140 143 286 266 316 266
12 0 14 -27 14 -153 0 -171 10 -225 64 -343 80 -171 247 -372 386 -464 169
-111 256 -95 431 79 86 87 152 182 136 198 -3 3 -43 -22 -89 -55 -138 -100
-227 -123 -323 -82 -116 50 -242 224 -292 405 -16 60 -18 223 -3 291 14 65 46
145 87 220 18 33 33 68 33 77 0 26 -68 74 -129 91 -85 24 -138 21 -194 -12
-63 -36 -143 -116 -150 -150 -4 -19 -17 -33 -39 -44 -50 -24 -198 -158 -440
-396 -59 -58 -110 -103 -113 -100 -11 11 26 137 72 247 81 195 215 436 340
617 203 293 406 467 575 493 63 10 94 0 110 -34 17 -39 52 -30 56 13 3 28 -3
40 -37 72 -51 48 -171 106 -275 130 -90 22 -105 23 -156 7z"/>
<path d="M6038 2850 c-47 -14 -90 -49 -207 -169 -230 -234 -379 -476 -606
-976 -122 -269 -151 -330 -167 -345 -54 -55 -63 -117 -29 -215 27 -82 85 -188
125 -230 56 -59 115 -38 136 50 22 90 45 144 96 226 l54 86 107 6 108 5 114
-119 c155 -164 291 -272 427 -343 129 -66 250 -97 328 -82 52 10 134 88 203
195 1 2 19 -11 40 -28 50 -41 83 -40 165 8 130 76 402 289 555 434 40 38 75
68 77 66 1 -2 8 -41 14 -87 36 -261 236 -491 429 -494 74 -1 118 25 223 131
124 125 330 424 330 479 0 21 -12 13 -82 -63 -45 -48 -106 -105 -136 -127
-165 -122 -408 -184 -500 -128 -43 26 -73 93 -73 164 -1 69 13 90 107 161 66
50 74 59 74 89 0 69 -140 218 -218 232 -30 6 -38 3 -54 -17 -10 -13 -23 -30
-29 -37 -20 -24 -361 -274 -519 -381 -165 -111 -270 -167 -296 -157 -78 30
213 382 496 600 147 113 329 201 438 212 47 4 65 1 102 -18 57 -29 63 -56 21
-104 -40 -45 -40 -58 2 -50 45 9 124 65 138 98 17 42 3 76 -59 137 -86 86
-143 116 -217 114 -75 -1 -212 -49 -300 -105 -275 -175 -518 -406 -685 -651
-93 -137 -117 -228 -90 -342 5 -22 6 -43 1 -48 -17 -17 -133 -28 -187 -18 -77
15 -210 79 -339 166 -118 79 -275 200 -275 213 0 4 39 30 88 59 185 110 384
278 439 371 31 52 27 81 -22 163 -40 65 -92 110 -147 128 -32 11 -43 10 -82
-8 -71 -31 -193 -125 -340 -262 -34 -31 -76 -69 -93 -83 -29 -24 -181 -186
-268 -287 -31 -35 -91 -122 -98 -142 -2 -7 -8 -9 -12 -5 -15 14 70 234 156
408 231 462 477 772 709 890 56 29 76 34 140 34 72 1 75 0 88 -27 10 -20 20
-27 35 -25 18 2 22 9 20 38 -1 27 -10 43 -43 72 -97 87 -329 165 -412 138z
m210 -860 c12 -12 22 -27 22 -34 0 -60 -321 -330 -537 -451 -74 -42 -153 -68
-153 -51 0 26 367 389 470 466 126 93 160 105 198 70z"/>
<path d="M9013 2211 c-102 -47 -280 -179 -370 -273 -93 -97 -109 -147 -78
-239 29 -83 53 -101 255 -184 169 -69 230 -97 230 -105 0 -4 -73 -45 -162 -90
-271 -136 -441 -242 -527 -327 -39 -39 -43 -47 -38 -79 16 -96 122 -196 210
-196 103 0 591 285 766 449 73 67 73 67 67 110 -6 46 -44 115 -73 132 -17 10
-17 12 2 27 51 41 338 164 463 199 99 27 82 32 -34 10 -94 -18 -262 -72 -410
-131 l-111 -45 -49 25 c-27 13 -110 45 -185 71 -165 56 -199 75 -199 111 0 52
168 190 326 268 99 48 137 58 187 51 28 -4 47 -3 51 4 11 17 -29 93 -72 136
-79 80 -177 110 -249 76z m178 -862 c16 -11 29 -26 29 -34 0 -46 -319 -215
-407 -215 -36 0 -29 34 15 68 51 40 314 201 330 202 2 0 17 -9 33 -21z"/>
</g>
</svg>
